<svg xmlns="http://www.w3.org/2000/svg" xmlns:xlink="http://www.w3.org/1999/xlink" width="456" zoomAndPan="magnify" viewBox="0 0 342 67.499998" height="90" preserveAspectRatio="xMidYMid meet" version="1.0"><defs><g/></defs><g fill="#a388a6" fill-opacity="1"><g transform="translate(95.43894, 34.464008)"><g><path d="M 26.558594 -17.144531 C 28.660156 -20.699219 27.875 -22.644531 26.847656 -23.652344 C 23.515625 -26.914062 12.519531 -24.769531 5.835938 -20.679688 C 1.496094 -18.039062 -0.402344 -15.023438 0.46875 -12.207031 C 0.558594 -11.894531 0.894531 -11.714844 1.207031 -11.804688 C 1.519531 -11.914062 1.675781 -12.226562 1.585938 -12.539062 C 0.648438 -15.605469 4.226562 -18.332031 6.4375 -19.695312 C 13.277344 -23.851562 23.339844 -25.460938 26.019531 -22.800781 C 27.09375 -21.773438 26.914062 -20.074219 25.550781 -17.726562 C 22.734375 -12.941406 16.050781 -10.039062 11.9375 -9.410156 C 11.894531 -9.410156 11.804688 -9.5 11.824219 -9.589844 C 11.847656 -9.679688 11.847656 -9.679688 11.871094 -9.746094 C 12.585938 -13.457031 13.523438 -18.085938 14.886719 -18.421875 C 15.199219 -18.488281 15.378906 -18.800781 15.3125 -19.113281 C 15.222656 -19.425781 14.910156 -19.628906 14.597656 -19.558594 C 12.519531 -19.046875 11.691406 -14.910156 10.730469 -10.082031 C 10.707031 -9.96875 10.597656 -9.902344 10.507812 -10.039062 C 9.746094 -11.199219 9.1875 -11.804688 8.539062 -11.714844 C 7.847656 -11.601562 7.644531 -10.820312 7.578125 -10.550781 C 7.289062 -9.679688 7.757812 -8.71875 8.652344 -8.40625 C 9.144531 -8.226562 9.65625 -8.136719 10.195312 -8.113281 C 10.238281 -8.113281 10.328125 -8.113281 10.304688 -7.980469 C 9.636719 -4.785156 8.808594 -1.585938 7.691406 -1.296875 C 7.488281 -1.25 7.308594 -1.09375 7.265625 -0.894531 C 7.199219 -0.671875 7.265625 -0.46875 7.398438 -0.3125 C 7.554688 -0.15625 7.78125 -0.113281 7.980469 -0.15625 C 9.566406 -0.582031 10.417969 -3.085938 11.15625 -6.371094 C 11.175781 -6.4375 11.199219 -6.460938 11.265625 -6.484375 C 11.3125 -6.484375 11.355469 -6.460938 11.378906 -6.414062 C 13.367188 -3.308594 16.09375 0.269531 19.785156 0.269531 C 19.941406 0.269531 20.097656 0.269531 20.277344 0.246094 C 24.074219 -0.0898438 25.28125 -4.113281 25.351562 -4.269531 C 25.441406 -4.582031 25.261719 -4.917969 24.949219 -5.007812 C 24.636719 -5.097656 24.300781 -4.917969 24.210938 -4.605469 C 24.210938 -4.582031 23.183594 -1.183594 20.164062 -0.917969 C 20.03125 -0.917969 19.917969 -0.917969 19.785156 -0.917969 C 16.476562 -0.917969 13.859375 -4.648438 11.980469 -7.667969 C 11.914062 -7.78125 11.914062 -7.914062 11.960938 -8.046875 C 12.027344 -8.160156 12.136719 -8.25 12.273438 -8.269531 C 16.832031 -8.964844 23.605469 -12.09375 26.558594 -17.144531 Z M 9.097656 -9.5 C 8.652344 -9.679688 8.585938 -9.949219 8.695312 -10.261719 C 8.761719 -10.417969 8.808594 -10.371094 8.851562 -10.351562 C 9.054688 -10.082031 9.253906 -9.8125 9.433594 -9.546875 C 9.523438 -9.410156 9.410156 -9.390625 9.367188 -9.410156 C 9.277344 -9.433594 9.1875 -9.457031 9.097656 -9.5 Z M 9.097656 -9.5 "/></g></g></g><g fill="#a388a6" fill-opacity="1"><g transform="translate(122.01539, 34.464008)"><g><path d="M 16.207031 -3.128906 C 17.503906 -7.085938 13.972656 -10.640625 10.574219 -14.105469 C 7.332031 -17.390625 4.246094 -20.523438 5.746094 -23.515625 C 6.863281 -25.796875 10.261719 -25.550781 12.183594 -25.195312 C 17.347656 -24.210938 23.023438 -20.542969 23.25 -18.0625 C 23.316406 -17.167969 22.621094 -16.429688 21.148438 -15.871094 C 19.089844 -15.3125 16.945312 -15.199219 14.84375 -15.492188 C 14.53125 -15.535156 14.238281 -15.3125 14.195312 -15 C 14.152344 -14.6875 14.375 -14.394531 14.6875 -14.328125 C 16.988281 -13.992188 19.3125 -14.152344 21.570312 -14.777344 C 24.074219 -15.714844 24.5 -17.144531 24.410156 -18.152344 C 24.121094 -21.550781 17.703125 -25.328125 12.40625 -26.332031 C 8.515625 -27.070312 5.789062 -26.246094 4.695312 -24.03125 C 2.816406 -20.296875 6.347656 -16.722656 9.746094 -13.277344 C 12.898438 -10.082031 16.164062 -6.773438 15.113281 -3.488281 C 14.441406 -1.410156 10.929688 -0.671875 7.980469 -0.871094 C 4.941406 -1.074219 2.546875 -2.167969 2.300781 -3.464844 C 2.167969 -4.15625 2.527344 -6.035156 8.496094 -8.761719 C 8.671875 -8.851562 8.808594 -9.03125 8.828125 -9.253906 C 8.851562 -9.457031 8.761719 -9.679688 8.585938 -9.792969 C 8.40625 -9.902344 8.183594 -9.925781 8.003906 -9.835938 C 3.0625 -7.578125 0.761719 -5.363281 1.140625 -3.265625 C 1.566406 -0.9375 5.050781 0.113281 7.914062 0.289062 C 8.25 0.3125 8.585938 0.335938 8.917969 0.335938 C 11.960938 0.335938 15.378906 -0.558594 16.207031 -3.128906 Z M 16.207031 -3.128906 "/></g></g></g><g fill="#a388a6" fill-opacity="1"><g transform="translate(141.059243, 34.464008)"><g/></g></g><g fill="#a388a6" fill-opacity="1"><g transform="translate(149.374165, 34.464008)"><g><path d="M 3.175781 -1.207031 C 4.582031 -2.371094 7.175781 -4.558594 9.121094 -4.984375 C 10.664062 -5.320312 12.5625 -4.179688 14.394531 -3.085938 C 16.496094 -1.832031 18.6875 -0.535156 20.589844 -1.363281 C 20.878906 -1.496094 21.011719 -1.855469 20.878906 -2.144531 C 20.746094 -2.4375 20.386719 -2.570312 20.097656 -2.4375 C 18.777344 -1.855469 16.921875 -2.949219 14.976562 -4.089844 C 12.964844 -5.320312 10.84375 -6.683594 8.875 -6.125 C 7.535156 -5.746094 7.421875 -6.035156 7.980469 -6.550781 C 9.1875 -7.644531 10.484375 -8.828125 11.78125 -10.015625 C 22.265625 -19.539062 23.316406 -20.789062 22.9375 -21.640625 C 22.800781 -21.929688 22.464844 -22.109375 22.132812 -22.042969 C 16.988281 -21.550781 8.136719 -20.207031 6.683594 -17.035156 C 6.28125 -16.140625 6.4375 -15.113281 7.0625 -14.375 C 7.242188 -14.105469 7.601562 -14.039062 7.867188 -14.238281 C 8.136719 -14.417969 8.203125 -14.796875 8.023438 -15.042969 C 7.644531 -15.445312 7.535156 -16.027344 7.734375 -16.542969 C 8.515625 -18.21875 13.234375 -19.761719 20.03125 -20.632812 C 20.230469 -20.65625 20.453125 -20.542969 20.566406 -20.34375 C 20.65625 -20.140625 20.632812 -19.917969 20.476562 -19.738281 C 18.351562 -17.570312 14.238281 -13.816406 11 -10.886719 C 6.660156 -6.953125 2.570312 -3.242188 1.675781 -1.945312 C 1.207031 -1.273438 0.871094 -0.804688 1.320312 -0.402344 C 1.410156 -0.289062 1.542969 -0.222656 1.699219 -0.203125 C 2.011719 -0.203125 2.390625 -0.535156 3.175781 -1.207031 Z M 3.175781 -1.207031 "/></g></g></g><g fill="#a388a6" fill-opacity="1"><g transform="translate(171.323769, 34.464008)"><g><path d="M 16.296875 -6.347656 C 16.183594 -6.460938 16.050781 -6.503906 15.894531 -6.503906 C 15.738281 -6.503906 15.582031 -6.460938 15.46875 -6.347656 C 12.785156 -3.667969 8.988281 -2.4375 5.253906 -3.0625 C 4.960938 -3.128906 4.761719 -3.398438 4.804688 -3.6875 C 4.984375 -4.761719 4.894531 -5.855469 4.269531 -6.214844 C 3.867188 -6.4375 3.265625 -6.460938 2.546875 -5.253906 C 2.28125 -4.851562 2.191406 -4.359375 2.28125 -3.890625 C 2.390625 -3.421875 2.683594 -2.996094 3.085938 -2.75 C 3.332031 -2.546875 3.039062 -2.214844 2.882812 -2.054688 C 2.460938 -1.542969 1.722656 -1.453125 1.207031 -1.855469 C 0.558594 -2.144531 0.269531 -2.863281 0.515625 -3.507812 C 0.804688 -4.695312 1.96875 -5.722656 2.390625 -5.722656 C 2.703125 -5.722656 2.972656 -5.992188 2.972656 -6.304688 C 2.996094 -6.617188 2.726562 -6.886719 2.414062 -6.90625 L 2.390625 -6.90625 C 1.273438 -6.90625 -0.222656 -5.386719 -0.625 -3.800781 C -1.007812 -2.636719 -0.46875 -1.363281 0.648438 -0.828125 C 1.074219 -0.582031 1.542969 -0.46875 2.035156 -0.445312 C 2.996094 -0.492188 3.84375 -1.074219 4.246094 -1.96875 C 4.292969 -2.035156 4.402344 -2.078125 4.492188 -2.054688 C 7.332031 -1.207031 12.519531 -1.742188 16.296875 -5.5 C 16.410156 -5.609375 16.476562 -5.765625 16.476562 -5.925781 C 16.476562 -6.082031 16.410156 -6.238281 16.296875 -6.347656 Z M 3.644531 -3.800781 C 3.398438 -4.023438 3.351562 -4.382812 3.554688 -4.648438 C 3.621094 -4.761719 3.667969 -4.828125 3.710938 -4.894531 C 3.734375 -4.539062 3.710938 -4.15625 3.644531 -3.800781 Z M 3.644531 -3.800781 "/></g></g></g><g fill="#a388a6" fill-opacity="1"><g transform="translate(186.768961, 34.464008)"><g><path d="M 24.523438 -5.679688 C 24.277344 -5.878906 23.898438 -5.835938 23.695312 -5.589844 C 23.652344 -5.523438 18.667969 0.558594 14.082031 -2.101562 C 13.480469 -2.527344 13.011719 -3.105469 12.765625 -3.777344 C 12.339844 -4.628906 11.824219 -5.65625 10.394531 -5.433594 C 9.65625 -5.320312 8.515625 -4.382812 7.554688 -3.308594 C 7.511719 -3.242188 7.421875 -3.21875 7.355469 -3.242188 C 7.289062 -3.265625 7.21875 -3.308594 7.21875 -3.398438 C 7.042969 -4.402344 6.371094 -5.253906 5.433594 -5.65625 C 4.671875 -5.855469 3.441406 -6.082031 0.871094 -3.53125 C 0.738281 -3.421875 0.558594 -3.464844 0.582031 -3.644531 C 0.582031 -3.734375 1.027344 -5.542969 1.027344 -5.542969 C 1.09375 -5.855469 0.894531 -6.167969 0.582031 -6.257812 C 0.269531 -6.328125 -0.0429688 -6.125 -0.132812 -5.8125 L -1.207031 -1.09375 C -1.273438 -0.828125 -1.140625 -0.558594 -0.894531 -0.425781 C -0.625 -0.3125 -0.335938 -0.378906 -0.179688 -0.605469 C 2.816406 -4.359375 4.292969 -4.71875 4.894531 -4.628906 C 5.5 -4.515625 6.304688 -3.308594 6.214844 -1.363281 C 6.214844 -1.09375 6.371094 -0.847656 6.640625 -0.78125 C 6.90625 -0.691406 7.175781 -0.804688 7.308594 -1.027344 C 8.226562 -2.59375 10.015625 -4.179688 10.574219 -4.269531 C 11.109375 -4.359375 11.265625 -4.15625 11.714844 -3.265625 C 12.050781 -2.371094 12.675781 -1.609375 13.480469 -1.09375 C 14.417969 -0.535156 15.492188 -0.222656 16.585938 -0.222656 C 20.855469 -0.222656 24.433594 -4.605469 24.613281 -4.851562 C 24.8125 -5.097656 24.769531 -5.476562 24.523438 -5.679688 Z M 24.523438 -5.679688 "/></g></g></g><g fill="#a388a6" fill-opacity="1"><g transform="translate(210.305555, 34.464008)"><g><path d="M 18.753906 -5.746094 C 18.644531 -5.855469 18.507812 -5.945312 18.351562 -5.945312 C 18.195312 -5.96875 18.039062 -5.925781 17.929688 -5.835938 C 17.839844 -5.765625 9.234375 1.074219 2.054688 -1.878906 C 0.605469 -2.480469 0.535156 -3.265625 0.582031 -3.6875 C 0.582031 -3.753906 0.605469 -3.824219 0.671875 -3.867188 C 0.714844 -3.910156 0.804688 -3.910156 0.871094 -3.890625 C 2.324219 -3.800781 3.777344 -4.179688 5.03125 -4.960938 C 6.101562 -5.65625 6.28125 -6.414062 6.214844 -6.90625 C 6.167969 -7.710938 5.523438 -8.359375 4.695312 -8.382812 C 2.929688 -8.472656 -0.0234375 -6.371094 -0.515625 -4.136719 C -0.714844 -3.308594 -0.691406 -1.742188 1.609375 -0.804688 C 3.019531 -0.222656 4.492188 0.0429688 5.992188 0.0429688 C 12.40625 0.0429688 18.351562 -4.671875 18.667969 -4.917969 C 18.777344 -5.007812 18.867188 -5.164062 18.867188 -5.296875 C 18.890625 -5.453125 18.84375 -5.609375 18.753906 -5.746094 Z M 1.386719 -5.253906 C 2.257812 -6.460938 3.710938 -7.265625 4.628906 -7.199219 C 4.875 -7.199219 5.007812 -7.109375 5.050781 -6.773438 C 5.074219 -6.550781 4.828125 -6.238281 4.382812 -5.945312 C 3.464844 -5.34375 0.714844 -4.359375 1.386719 -5.253906 Z M 1.386719 -5.253906 "/></g></g></g><g fill="#a388a6" fill-opacity="1"><g transform="translate(228.209457, 34.464008)"><g><path d="M 19.269531 -5.878906 C 19.15625 -5.992188 19.023438 -6.058594 18.867188 -6.058594 C 18.710938 -6.058594 18.554688 -5.992188 18.441406 -5.878906 C 14.574219 -2.101562 7.710938 -1.296875 6.238281 -2.167969 C 5.230469 -2.75 5.34375 -3.441406 6.058594 -4.828125 C 6.394531 -5.5 6.773438 -6.28125 6.125 -6.75 C 5.523438 -7.199219 4.941406 -6.90625 4.425781 -6.640625 C 3.6875 -6.214844 2.863281 -5.992188 1.988281 -5.992188 C 1.789062 -5.992188 1.609375 -6.347656 1.652344 -6.484375 C 2.90625 -9.234375 2.347656 -9.746094 2.144531 -9.949219 C 1.8125 -10.28125 1.296875 -10.261719 0.671875 -9.878906 C -0.359375 -9.144531 -0.804688 -7.824219 -0.445312 -6.59375 C -0.359375 -6.257812 -0.203125 -5.945312 0.0234375 -5.679688 C 0 -5.433594 0.113281 -5.207031 0.335938 -5.097656 C 0.46875 -5.03125 0.625 -5.03125 0.78125 -5.074219 C 1.164062 -4.894531 1.585938 -4.804688 2.011719 -4.804688 C 2.929688 -4.785156 3.824219 -4.984375 4.628906 -5.433594 C 4.941406 -5.589844 5.050781 -5.453125 5.007812 -5.363281 C 4.472656 -4.3125 3.507812 -2.390625 5.65625 -1.140625 C 6.414062 -0.78125 7.265625 -0.625 8.113281 -0.691406 C 11.246094 -0.691406 16.164062 -2.035156 19.246094 -5.050781 C 19.359375 -5.140625 19.425781 -5.296875 19.425781 -5.453125 C 19.449219 -5.609375 19.382812 -5.765625 19.269531 -5.878906 Z M 0.648438 -7.109375 C 0.515625 -7.757812 0.738281 -8.425781 1.25 -8.851562 C 1.09375 -8.25 0.894531 -7.667969 0.648438 -7.085938 Z M 0.648438 -7.109375 "/></g></g></g><g fill="#a388a6" fill-opacity="1"><g transform="translate(140.774179, 57.822677)"><g><path d="M 10.625 0 L 6.953125 0 L 6.953125 -0.84375 L 8.546875 -0.84375 L 7.671875 -3.15625 L 2.84375 -3.15625 L 1.921875 -0.84375 L 3.625 -0.84375 L 3.625 0 L -0.03125 0 L -0.03125 -0.84375 L 0.96875 -0.84375 L 4.59375 -9.859375 L 2.828125 -9.859375 L 2.828125 -10.6875 L 5.703125 -10.6875 L 9.546875 -0.84375 L 10.625 -0.84375 Z M 7.390625 -3.921875 L 5.34375 -9.3125 L 5.265625 -9.3125 L 3.140625 -3.921875 Z M 7.390625 -3.921875 "/></g></g></g><g fill="#a388a6" fill-opacity="1"><g transform="translate(155.22534, 57.822677)"><g><path d="M 5.859375 -1.890625 C 5.640625 -0.515625 4.898438 0.171875 3.640625 0.171875 C 2.921875 0.171875 2.382812 -0.0351562 2.03125 -0.453125 C 1.675781 -0.867188 1.5 -1.429688 1.5 -2.140625 L 1.5 -6.53125 L 0.296875 -6.53125 L 0.296875 -7.3125 L 1.5 -7.3125 L 1.5 -9.671875 L 2.40625 -9.671875 L 2.40625 -7.3125 L 5.3125 -7.3125 L 5.3125 -6.53125 L 2.40625 -6.53125 L 2.40625 -2.234375 C 2.40625 -1.753906 2.503906 -1.367188 2.703125 -1.078125 C 2.898438 -0.785156 3.242188 -0.640625 3.734375 -0.640625 C 4.054688 -0.640625 4.34375 -0.734375 4.59375 -0.921875 C 4.84375 -1.117188 5.03125 -1.519531 5.15625 -2.125 Z M 5.859375 -1.890625 "/></g></g></g><g fill="#a388a6" fill-opacity="1"><g transform="translate(165.167328, 57.822677)"><g><path d="M 7.03125 -2.046875 C 6.914062 -1.429688 6.601562 -0.90625 6.09375 -0.46875 C 5.59375 -0.0390625 4.914062 0.171875 4.0625 0.171875 C 3.039062 0.171875 2.222656 -0.15625 1.609375 -0.8125 C 0.992188 -1.476562 0.6875 -2.390625 0.6875 -3.546875 C 0.6875 -4.691406 0.984375 -5.628906 1.578125 -6.359375 C 2.171875 -7.085938 2.96875 -7.453125 3.96875 -7.453125 C 4.96875 -7.453125 5.710938 -7.125 6.203125 -6.46875 C 6.703125 -5.820312 6.953125 -5.082031 6.953125 -4.25 C 6.953125 -4.007812 6.925781 -3.734375 6.875 -3.421875 L 1.640625 -3.421875 C 1.660156 -2.546875 1.882812 -1.863281 2.3125 -1.375 C 2.75 -0.882812 3.351562 -0.640625 4.125 -0.640625 C 5.28125 -0.640625 5.992188 -1.164062 6.265625 -2.21875 Z M 6 -4.171875 C 6.0625 -4.753906 5.921875 -5.3125 5.578125 -5.84375 C 5.234375 -6.375 4.679688 -6.640625 3.921875 -6.640625 C 3.179688 -6.640625 2.640625 -6.394531 2.296875 -5.90625 C 1.953125 -5.414062 1.738281 -4.835938 1.65625 -4.171875 Z M 6 -4.171875 "/></g></g></g><g fill="#a388a6" fill-opacity="1"><g transform="translate(176.804372, 57.822677)"><g><path d="M 3.953125 0 L 0.34375 0 L 0.34375 -0.75 L 1.6875 -0.75 L 1.6875 -10.5625 L 0.328125 -10.5625 L 0.328125 -11.3125 L 2.59375 -11.3125 L 2.59375 -0.75 L 3.953125 -0.75 Z M 3.953125 0 "/></g></g></g><g fill="#a388a6" fill-opacity="1"><g transform="translate(185.051304, 57.822677)"><g><path d="M 1.8125 -9.34375 L 1.8125 -10.640625 L 2.828125 -10.640625 L 2.828125 -9.34375 Z M 4.171875 0 L 0.5625 0 L 0.5625 -0.75 L 1.921875 -0.75 L 1.921875 -6.53125 L 0.546875 -6.53125 L 0.546875 -7.3125 L 2.828125 -7.3125 L 2.828125 -0.75 L 4.171875 -0.75 Z M 4.171875 0 "/></g></g></g><g fill="#a388a6" fill-opacity="1"><g transform="translate(193.528637, 57.822677)"><g><path d="M 6.09375 -9.078125 L 5.6875 -8.59375 L 3.96875 -10.046875 L 2.359375 -8.59375 L 1.96875 -9.03125 L 3.921875 -10.96875 L 4.15625 -10.96875 Z M 7.03125 -2.046875 C 6.914062 -1.429688 6.601562 -0.90625 6.09375 -0.46875 C 5.59375 -0.0390625 4.914062 0.171875 4.0625 0.171875 C 3.039062 0.171875 2.222656 -0.15625 1.609375 -0.8125 C 0.992188 -1.476562 0.6875 -2.390625 0.6875 -3.546875 C 0.6875 -4.691406 0.984375 -5.628906 1.578125 -6.359375 C 2.171875 -7.085938 2.96875 -7.453125 3.96875 -7.453125 C 4.96875 -7.453125 5.710938 -7.125 6.203125 -6.46875 C 6.703125 -5.820312 6.953125 -5.082031 6.953125 -4.25 C 6.953125 -4.007812 6.925781 -3.734375 6.875 -3.421875 L 1.640625 -3.421875 C 1.660156 -2.546875 1.882812 -1.863281 2.3125 -1.375 C 2.75 -0.882812 3.351562 -0.640625 4.125 -0.640625 C 5.28125 -0.640625 5.992188 -1.164062 6.265625 -2.21875 Z M 6 -4.171875 C 6.0625 -4.753906 5.921875 -5.3125 5.578125 -5.84375 C 5.234375 -6.375 4.679688 -6.640625 3.921875 -6.640625 C 3.179688 -6.640625 2.640625 -6.394531 2.296875 -5.90625 C 1.953125 -5.414062 1.738281 -4.835938 1.65625 -4.171875 Z M 6 -4.171875 "/></g></g></g></svg>